<?xml version="1.0" encoding="UTF-8" standalone="no"?>
<svg
   xmlns:dc="http://purl.org/dc/elements/1.1/"
   xmlns:cc="http://creativecommons.org/ns#"
   xmlns:rdf="http://www.w3.org/1999/02/22-rdf-syntax-ns#"
   xmlns:svg="http://www.w3.org/2000/svg"
   xmlns="http://www.w3.org/2000/svg"
   xmlns:xlink="http://www.w3.org/1999/xlink"
   xmlns:sodipodi="http://sodipodi.sourceforge.net/DTD/sodipodi-0.dtd"
   xmlns:inkscape="http://www.inkscape.org/namespaces/inkscape"
   sodipodi:docname="View.svg"
   inkscape:version="1.0 (4035a4fb49, 2020-05-01)"
   id="svg8"
   version="1.1"
   viewBox="0 0 150 150"
   height="150mm"
   width="150mm">
  <defs
     id="defs2">
    <linearGradient
       id="linearGradient906"
       inkscape:collect="always">
      <stop
         id="stop902"
         offset="0"
         style="stop-color:#00008b;stop-opacity:1" />
      <stop
         id="stop904"
         offset="1"
         style="stop-color:#4169e1;stop-opacity:1" />
    </linearGradient>
    <linearGradient
       gradientUnits="userSpaceOnUse"
       y2="557.14288"
       x2="280"
       y1="17.142857"
       x1="280"
       id="linearGradient908"
       xlink:href="#linearGradient906"
       inkscape:collect="always" />
  </defs>
  <sodipodi:namedview
     inkscape:window-maximized="0"
     inkscape:window-y="4"
     inkscape:window-x="260"
     inkscape:window-height="1040"
     inkscape:window-width="1638"
     showgrid="false"
     inkscape:document-rotation="0"
     inkscape:current-layer="layer1"
     inkscape:document-units="mm"
     inkscape:cy="560"
     inkscape:cx="400"
     inkscape:zoom="0.35"
     inkscape:pageshadow="2"
     inkscape:pageopacity="0.0"
     borderopacity="1.0"
     bordercolor="#666666"
     pagecolor="#ffffff"
     id="base" />
  <metadata
     id="metadata5">
    <rdf:RDF>
      <cc:Work
         rdf:about="">
        <dc:format>image/svg+xml</dc:format>
        <dc:type
           rdf:resource="http://purl.org/dc/dcmitype/StillImage" />
        <dc:title></dc:title>
      </cc:Work>
    </rdf:RDF>
  </metadata>
  <g
     id="layer1"
     inkscape:groupmode="layer"
     inkscape:label="レイヤー 1">
    <path
       transform="scale(0.26458333)"
       d="M 83.150391 0 L 83.150391 45.353516 L 521.57422 45.353516 L 521.57422 483.7793 L 566.92969 483.7793 L 566.92969 45.353516 L 566.92969 0 L 521.57422 0 L 83.150391 0 z M 0 83.150391 L 0 566.92969 L 483.7793 566.92969 L 483.7793 83.150391 L 0 83.150391 z M 162.40625 154.28516 A 56.692909 56.692909 0 0 1 219.09961 210.97852 A 56.692909 56.692909 0 0 1 162.40625 267.67188 A 56.692909 56.692909 0 0 1 105.71484 210.97852 A 56.692909 56.692909 0 0 1 162.40625 154.28516 z M 297.14258 259.82422 L 410.5293 486.5957 L 252.32812 486.5957 L 183.75781 486.5957 L 82.25 486.5957 L 167.28906 316.51758 L 218.04297 418.02539 L 297.14258 259.82422 z "
       style="fill:url(#linearGradient908);fill-opacity:1;fill-rule:evenodd;stroke-width:109.473;stroke-linecap:round;paint-order:stroke fill markers"
       id="rect833" />
  </g>
</svg>
