<?xml version="1.0" encoding="UTF-8" standalone="no"?>
<!DOCTYPE svg PUBLIC "-//W3C//DTD SVG 1.1//EN" "http://www.w3.org/Graphics/SVG/1.1/DTD/svg11.dtd">
<!-- Created with Vectornator (http://vectornator.io/) -->
<svg height="100%" stroke-miterlimit="10" style="fill-rule:nonzero;clip-rule:evenodd;stroke-linecap:round;stroke-linejoin:round;" version="1.1" viewBox="0 0 500 500" width="100%" xml:space="preserve" xmlns="http://www.w3.org/2000/svg" xmlns:vectornator="http://vectornator.io" xmlns:xlink="http://www.w3.org/1999/xlink">
<defs/>
<clipPath id="ArtboardFrame">
<rect height="500" width="500" x="0" y="0"/>
</clipPath>
<g clip-path="url(#ArtboardFrame)" id="名称未設定" vectornator:layerName="名称未設定">
<path d="M74.3303 50.1525C60.343 50.2802 50.1759 60.7432 50.1428 74.6525C50.1303 79.9337 50.1428 85.2151 50.1428 90.4963C50.1428 218.3 50.1298 346.098 50.0803 473.903C50.0772 481.945 52.7179 488.666 58.8303 493.903C64.4111 498.683 71.1709 499.959 78.2366 499.965C123.353 500.003 168.48 499.996 214.049 499.996C223.102 499.996 231.699 499.996 240.299 499.996C283.001 499.996 325.691 500.016 368.393 499.965C384.849 499.945 396.047 489.945 396.049 475.371C396.049 473.309 396.049 471.246 396.049 469.184C354.483 469.229 312.928 469.215 271.362 469.215C262.761 469.215 254.165 469.215 245.112 469.215C199.543 469.215 154.415 469.221 109.299 469.184C102.233 469.178 95.4736 467.871 89.8928 463.09C83.7804 457.854 81.1397 451.164 81.1428 443.121C81.1923 315.317 81.1741 187.519 81.1741 59.715C81.1741 56.5276 81.1743 53.34 81.1741 50.1525C78.8926 50.165 76.6118 50.1317 74.3303 50.1525Z" fill="#95b0c9" fill-rule="nonzero" opacity="1" stroke="none" vectornator:layerName="曲線 1"/>
<path d="M267.815 449.989C222.246 449.989 177.13 450.007 132.013 449.97C124.948 449.964 118.186 448.662 112.605 443.882C106.493 438.645 103.864 431.941 103.867 423.898C103.916 296.094 103.901 168.29 103.901 40.4857C103.901 35.2045 103.891 29.9233 103.904 24.6422C103.937 10.7328 114.105 0.264063 128.092 0.136442C145.896-0.0260007 163.702 0.09155 181.507 0.0912031C227.981 0.0902984 274.455 0.141574 320.929 0.000112284C324.884-0.011925 326.001 0.939452 325.974 4.98399C325.789 33.0484 326.334 61.1243 325.736 89.1772C325.237 112.585 344.046 124.445 361.004 124.247C389.065 123.92 417.134 124.234 445.199 124.07C449.021 124.047 449.923 125.157 449.92 128.871C449.82 227.704 449.848 326.537 449.832 425.37C449.83 439.944 438.631 449.952 422.175 449.972C379.473 450.023 336.771 449.989 294.069 449.989C285.469 449.989 276.868 449.989 267.815 449.989Z" fill="#95b0c9" fill-rule="nonzero" opacity="1" stroke="none" vectornator:layerName="path"/>
<path d="M368.927 25.7618C395.806 52.5757 422.457 79.163 449.072 105.713C447.69 107.526 446.384 107.01 445.282 107.011C416.773 107.039 388.263 107.02 359.754 107.024C353.806 107.025 348.898 104.928 345.358 100.022C343.815 97.8837 343.026 95.4806 343.026 92.8362C343.028 62.8184 343.032 32.8006 343.049 2.78279C343.049 2.36542 343.228 1.94816 343.58 0.411876C352.263 9.09529 360.482 17.3152 368.927 25.7618Z" fill="#96b1ca" fill-rule="nonzero" opacity="1" stroke="none" vectornator:layerName="path"/>
<path d="M347.371 295.015C365.039 295.015 382.578 295.014 400.118 295.015C403.021 295.016 403.679 297.298 403.679 307.348C403.68 308.843 403.685 310.339 403.678 311.834C403.646 318.604 402.855 321.487 400.949 321.488C378.607 321.509 356.265 321.509 333.922 321.486C332.129 321.484 331.356 318.831 331.258 312.521C331.219 309.986 331.234 307.437 331.253 304.896C331.301 298.109 332.154 295.075 334.12 295.04C338.494 294.962 342.868 295.015 347.371 295.015Z" fill="#4f5051" fill-rule="nonzero" opacity="1" stroke="none" vectornator:layerName="path"/>
<path d="M364.62 234.533C376.668 234.533 388.588 234.531 400.508 234.535C403.021 234.536 403.552 236.355 403.556 244.93C403.558 247.771 403.585 250.619 403.537 253.451C403.464 257.782 402.725 260.275 401.495 260.561C401.196 260.63 400.895 260.577 400.595 260.577C378.513 260.577 356.431 260.577 334.349 260.576C331.949 260.576 331.371 258.602 331.367 250.391C331.365 247.55 331.346 244.706 331.377 241.869C331.425 237.543 332.128 234.989 333.363 234.598C333.788 234.463 334.22 234.535 334.648 234.535C344.596 234.532 354.543 234.533 364.62 234.533Z" fill="#4e4e4e" fill-rule="nonzero" opacity="1" stroke="none" vectornator:layerName="path"/>
<path d="M375.175 381.983C361.402 381.983 347.758 381.985 334.113 381.982C331.931 381.981 331.376 380.054 331.367 372.468C331.364 369.775 331.354 367.081 331.37 364.389C331.404 358.881 332.149 356.246 333.745 355.951C334.044 355.896 334.345 355.94 334.646 355.94C356.528 355.939 378.411 355.939 400.293 355.94C402.979 355.94 403.555 357.919 403.557 367.142C403.557 369.387 403.568 371.632 403.553 373.875C403.516 379.59 402.827 381.971 401.177 381.974C392.553 381.993 383.928 381.983 375.175 381.983Z" fill="#4e4e4e" fill-rule="nonzero" opacity="1" stroke="none" vectornator:layerName="path"/>
<path d="M310.357 134.894C308.556 137.331 306.342 137.869 303.781 137.868C255.03 137.839 206.28 137.858 157.53 137.826C152.626 137.823 150.112 135.238 149.972 130.253C149.871 126.633 149.866 123.006 149.968 119.387C150.105 114.525 152.623 111.936 157.48 111.508C158.529 111.415 159.592 111.48 160.648 111.48C207.436 111.479 254.224 111.477 301.013 111.48C309.49 111.481 311.974 113.943 311.95 122.602C311.939 126.631 312.666 130.785 310.357 134.894Z" fill="#4d4d4d" fill-rule="nonzero" opacity="1" stroke="none" vectornator:layerName="path"/>
<path d="M234.308 173.06C257.086 173.06 279.412 173.052 301.738 173.064C309.122 173.068 311.792 175.678 311.965 183.087C312.032 185.951 312.145 188.837 311.884 191.68C311.425 196.684 308.552 199.303 303.559 199.305C254.985 199.334 206.412 199.336 157.838 199.302C152.719 199.299 150.119 196.63 149.964 191.474C149.87 188.309 149.909 185.138 149.944 181.971C150.013 175.808 152.573 173.132 158.731 173.083C168.989 173.002 179.247 173.06 189.505 173.06C204.288 173.06 219.071 173.06 234.308 173.06Z" fill="#4d4d4d" fill-rule="nonzero" opacity="1" stroke="none" vectornator:layerName="path"/>
</g>
<g id="レイヤー-1" vectornator:layerName="レイヤー 1">
<path d="M311.96 255.881C312.048 296.311 312.048 336.638 312.048 377.135C310.893 377.412 310.585 376.37 310.071 375.731C303.644 367.738 297.25 359.718 290.83 351.72C283.134 342.132 275.507 332.488 267.752 322.946C263.593 317.829 255.099 317.794 250.928 322.295C247.873 325.592 244.856 328.924 241.832 332.248C239.694 334.597 237.624 337.011 235.367 339.247C233.858 340.742 233.383 340.688 232.155 338.935C225.854 329.949 219.594 320.933 213.302 311.94C210.896 308.5 208.531 305.03 206.087 301.616C201.719 295.514 191.879 295.568 187.608 301.603C181.717 309.926 175.87 318.279 170.005 326.619C161.967 338.051 153.932 349.485 145.901 360.922C145.557 361.412 145.212 361.909 144.749 362.299C144.33 362.652 143.911 362.802 143.539 362.025C143.294 361.116 143.323 360.334 143.323 359.556C143.319 323.177 143.303 286.798 143.341 250.419C143.346 245.699 144.305 241.132 146.436 236.693C146.565 236.452 146.607 236.353 146.702 236.102C146.839 235.762 146.94 235.582 147.146 235.295C149.908 233.091 153.034 232.177 156.424 231.591C200.095 231.503 243.663 231.503 287.399 231.503C290.923 232.171 294.104 233.302 297.08 235.006C304.348 239.169 308.997 245.373 311.432 253.322C311.679 254.127 311.559 254.991 311.96 255.881Z" fill="#fcf2ea" fill-rule="nonzero" opacity="1" stroke="none" vectornator:layerName="path 1"/>
<path d="M143.803 362.686C147.097 358.761 149.766 354.563 152.63 350.506C164.206 334.104 175.696 317.642 187.321 301.276C191.825 294.934 201.721 294.843 206.238 301.135C213.507 311.26 220.563 321.537 227.707 331.751C229.424 334.207 231.155 336.653 232.831 339.135C233.399 339.977 233.772 340.371 234.658 339.389C239.474 334.049 244.579 328.951 249.142 323.406C254.557 316.825 264.006 317.135 268.48 323.038C270.65 325.902 272.993 328.634 275.239 331.441C286.091 345.008 296.937 358.58 307.786 372.149C309.132 373.833 310.484 375.513 311.94 377.249C312.048 379.951 312.048 382.598 312.048 385.415C311.652 388.057 311.33 390.551 310.31 392.873C309.759 394.127 309.364 395.481 308.073 396.449C303.202 399.165 298.053 400.182 292.71 400.186C253.664 400.216 214.619 400.225 175.573 400.185C166.364 400.175 158.222 397.281 151.791 390.455C147.166 385.546 144.526 379.67 143.701 372.96C143.334 369.971 143.306 366.982 143.382 363.819C143.33 363.312 143.393 363.003 143.803 362.686Z" fill="#81a9df" fill-rule="nonzero" opacity="1" stroke="none" vectornator:layerName="path 2"/>
<path d="M143.508 363.293C144.256 364.721 143.897 366.231 143.911 367.702C143.966 373.472 144.968 379.003 147.859 384.074C152.523 392.253 159.472 397.232 168.759 398.926C172.007 399.518 175.277 399.634 178.57 399.632C215.583 399.614 252.596 399.589 289.608 399.65C295.973 399.661 302.131 399.005 308.009 396.039C308.579 396.847 307.964 397.394 307.598 397.969C303.642 404.184 298.026 408.254 291.117 410.623C289.461 411.19 287.727 411.318 285.877 411.423C243.28 411.503 200.793 411.503 158.137 411.503C150.673 410.957 144.692 407.643 139.806 402.419C135.555 397.874 132.558 392.601 132.129 386.054C132.048 383.896 132.048 381.848 132.048 379.632C133.611 376.157 136.043 373.424 138.05 370.412C139.403 368.383 140.81 366.385 142.253 364.415C142.569 363.983 142.85 363.518 143.508 363.293Z" fill="#5b8fd5" fill-rule="nonzero" opacity="1" stroke="none" vectornator:layerName="path 3"/>
<path d="M143.655 363.191C139.848 368.645 136.06 374.007 132.16 379.416C132.048 338.776 132.048 298.088 132.048 257.232C133.164 248.248 137.799 241.625 144.855 236.513C145.478 236.063 146.062 235.488 147.055 235.738C146.654 238.214 145.362 240.347 144.896 242.775C144.389 245.414 143.927 248.044 143.927 250.742C143.934 287.916 143.935 325.091 143.944 362.441C143.859 362.777 143.766 362.938 143.655 363.191Z" fill="#f0e5e1" fill-rule="nonzero" opacity="1" stroke="none" vectornator:layerName="path 4"/>
<path d="M279.583 261.28C279.242 261.892 278.669 261.77 278.152 261.711C265.072 260.216 254.262 269.611 252.396 281.433C251.2 289.01 253.029 296.013 258.574 301.714C258.814 301.961 258.949 302.311 259.159 302.746C252.361 301.628 247.126 297.951 243.592 292.081C234.651 277.23 243.14 258.612 260.234 255.782C267.348 254.605 273.905 256.463 279.583 261.28Z" fill="#ffc145" fill-rule="nonzero" opacity="1" stroke="none" vectornator:layerName="path 6"/>
<path d="M279.509 261.363C289.321 269.317 290.885 284.523 282.891 294.289C276.812 301.715 268.911 304.58 259.306 302.949C254.637 298.942 252.319 293.865 251.803 287.969C250.865 277.27 255.196 269.198 264.446 263.888C269.035 261.254 274.076 260.33 279.509 261.363Z" fill="#ffcd69" fill-rule="nonzero" opacity="1" stroke="none" vectornator:layerName="path 5"/>
</g>
</svg>
