<svg version="1.1" id="Layer_1" xmlns="http://www.w3.org/2000/svg" xmlns:xlink="http://www.w3.org/1999/xlink" x="0px" y="0px"
	 width="100%" viewBox="0 0 500 500" enable-background="new 0 0 500 500" xml:space="preserve">
<path fill="#FFFFFF" opacity="1.000000" stroke="none" 
	d="
M501.000000,199.000000 
	C501.000000,298.666656 500.977325,397.833313 501.095551,496.999817 
	C501.099640,500.423798 500.423828,501.096954 497.000000,501.094696 
	C333.000092,500.986237 169.000137,500.986206 5.000253,501.094635 
	C1.576953,501.096893 0.903020,500.424194 0.905285,497.000122 
	C1.013782,333.000214 1.013754,169.000259 0.905355,5.000372 
	C0.903092,1.577346 1.575414,0.903005 4.999751,0.905271 
	C168.999634,1.013778 332.999603,1.013757 496.999512,0.905371 
	C500.422272,0.903109 501.103699,1.574159 501.096710,4.999766 
	C500.965271,69.499641 501.000000,133.999863 501.000000,199.000000 
z"/>
<path fill="#95B0C9" opacity="1.000000" stroke="none" 
	d="
M241.000000,499.795288 
	C190.680923,499.795197 140.861832,499.815796 91.042786,499.774323 
	C83.240570,499.767822 75.774269,498.330536 69.611755,493.051392 
	C62.862206,487.269318 59.958809,479.866211 59.962246,470.984924 
	C60.016850,329.858643 60.000626,188.732361 60.000614,47.606079 
	C60.000614,41.774414 59.989311,35.942722 60.003181,30.111092 
	C60.039707,14.751824 71.267334,3.191822 86.712708,3.050897 
	C106.372124,2.871522 126.034378,3.001326 145.695404,3.000943 
	C197.014053,2.999944 248.332855,3.056564 299.651031,2.900357 
	C304.017609,2.887065 305.251068,3.937612 305.221588,8.403742 
	C305.017059,39.393517 305.619476,70.396049 304.959198,101.373093 
	C304.408295,127.220818 325.177521,140.317688 343.902802,140.099030 
	C374.889679,139.737152 405.884399,140.084091 436.874451,139.902802 
	C441.094482,139.878113 442.091400,141.103043 442.087250,145.204147 
	C441.976746,254.339462 442.007660,363.474915 441.990387,472.610352 
	C441.987854,488.703369 429.621735,499.754761 411.450409,499.776428 
	C364.297302,499.832703 317.144104,499.795532 269.990936,499.795624 
	C260.493958,499.795624 250.996979,499.795532 241.000000,499.795288 
z"/>
<path fill="#96B1CA" opacity="1.000000" stroke="none" 
	d="
M352.652527,31.347435 
	C382.332306,60.956402 411.762360,90.315117 441.151398,119.632904 
	C439.625244,121.634590 438.183044,121.065155 436.966553,121.066315 
	C405.485321,121.096420 374.004028,121.076195 342.522766,121.080101 
	C335.955292,121.080917 330.535553,118.766052 326.625732,113.347893 
	C324.922241,110.987198 324.051147,108.333549 324.051331,105.413536 
	C324.053497,72.266724 324.057556,39.119907 324.076447,5.973101 
	C324.076721,5.512225 324.274445,5.051466 324.663055,3.355042 
	C334.250793,12.943603 343.326813,22.020393 352.652527,31.347435 
z"/>
<path fill="#4F5051" opacity="1.000000" stroke="none" 
	d="
M173.000000,329.248932 
	C241.627304,329.248962 309.754608,329.247925 377.881897,329.249420 
	C389.158905,329.249695 391.713898,331.791718 391.717072,342.986237 
	C391.717560,344.651947 391.740448,346.318054 391.712982,347.983307 
	C391.588623,355.523590 388.514862,358.734741 381.112488,358.736664 
	C294.329315,358.759094 207.546112,358.759552 120.762939,358.733734 
	C113.799477,358.731659 110.796341,355.777069 110.415466,348.748444 
	C110.262459,345.924927 110.323212,343.084900 110.393776,340.255066 
	C110.582291,332.694855 113.894531,329.315521 121.529434,329.276611 
	C138.519226,329.190002 155.509766,329.249023 173.000000,329.248932 
z"/>
<path fill="#4E4E4E" opacity="1.000000" stroke="none" 
	d="
M240.000000,261.880676 
	C286.800079,261.880676 333.100159,261.878326 379.400238,261.882935 
	C389.158386,261.883881 391.224091,263.910339 391.239044,273.462006 
	C391.243988,276.626099 391.352234,279.798523 391.165222,282.952454 
	C390.879120,287.777374 388.009674,290.554016 383.231995,290.872040 
	C382.071167,290.949280 380.901093,290.889526 379.735291,290.889526 
	C293.963562,290.889801 208.191818,290.890259 122.420082,290.889099 
	C113.097595,290.888947 110.853645,288.690552 110.837158,279.544281 
	C110.831451,276.379974 110.754776,273.211975 110.876648,270.052094 
	C111.062492,265.233093 113.794395,262.389221 118.589760,261.953339 
	C120.242775,261.803070 121.918060,261.883148 123.583176,261.883026 
	C162.222122,261.880188 200.861053,261.880798 240.000000,261.880676 
z"/>
<path fill="#4E4E4E" opacity="1.000000" stroke="none" 
	d="
M281.000000,426.119324 
	C227.501572,426.119324 174.503143,426.120758 121.504723,426.117493 
	C113.030197,426.116943 110.874420,423.970062 110.838188,415.521088 
	C110.825325,412.521240 110.788460,409.520203 110.851418,406.521576 
	C110.980225,400.386719 113.875786,397.452087 120.073471,397.123535 
	C121.236908,397.061829 122.406273,397.110413 123.572899,397.110413 
	C208.570374,397.110229 293.567871,397.109650 378.565338,397.111115 
	C388.998505,397.111298 391.232727,399.314911 391.241425,409.588745 
	C391.243561,412.088684 391.285126,414.589661 391.227539,417.088318 
	C391.080841,423.453461 388.407074,426.105377 381.997040,426.109314 
	C348.498016,426.129883 314.999023,426.119080 281.000000,426.119324 
z"/>
<path fill="#4D4D4D" opacity="1.000000" stroke="none" 
	d="
M287.977173,151.855835 
	C285.987549,154.545883 283.543762,155.140549 280.714905,155.138870 
	C226.882980,155.106979 173.051025,155.128632 119.219124,155.092911 
	C113.804298,155.089325 111.028023,152.235672 110.873672,146.730209 
	C110.761627,142.733475 110.756233,138.728546 110.869011,134.731949 
	C111.020515,129.362946 113.800774,126.504173 119.163895,126.031471 
	C120.322014,125.929398 121.495834,126.000229 122.662422,126.000214 
	C174.327759,125.999359 225.993088,125.997787 277.658417,126.001053 
	C287.019073,126.001648 289.762573,128.720596 289.735718,138.281555 
	C289.723206,142.730667 290.526672,147.317902 287.977173,151.855835 
z"/>
<path fill="#4D4D4D" opacity="1.000000" stroke="none" 
	d="
M204.000000,193.999573 
	C229.153122,193.999634 253.806259,193.991241 278.459381,194.004547 
	C286.613281,194.008957 289.561005,196.890869 289.752197,205.072128 
	C289.826111,208.234421 289.951324,211.420914 289.663300,214.560623 
	C289.156433,220.086151 285.983124,222.977753 280.470612,222.980957 
	C226.833405,223.012207 173.196182,223.014740 119.559013,222.977448 
	C113.906654,222.973511 111.035988,220.027054 110.865150,214.332947 
	C110.760300,210.837921 110.803429,207.336990 110.842697,203.839417 
	C110.919098,197.034531 113.746109,194.079514 120.545845,194.025421 
	C131.872253,193.935303 143.199875,193.999786 154.526993,193.999634 
	C170.851334,193.999405 187.175659,193.999573 204.000000,193.999573 
z"/>
</svg>