<svg version="1.1" id="Layer_1" xmlns="http://www.w3.org/2000/svg" xmlns:xlink="http://www.w3.org/1999/xlink" x="0px" y="0px"
	 width="100%" viewBox="0 0 500 500" enable-background="new 0 0 500 500" xml:space="preserve">
<path fill="#FAF7F5" opacity="1.000000" stroke="none" 
	d="
M500.756714,68.717041 
	C501.000000,181.020889 501.000000,293.041779 501.000000,405.531342 
	C497.793213,406.301422 496.936768,403.406494 495.509399,401.631531 
	C477.655823,379.430176 459.896362,357.152954 442.062805,334.935333 
	C420.684326,308.301300 399.498535,281.513336 377.957336,255.008774 
	C366.403381,240.792648 342.808228,240.696396 331.221558,253.200409 
	C322.737457,262.356171 314.357239,271.612396 305.955505,280.846405 
	C300.018585,287.371429 294.267578,294.075928 287.996765,300.288116 
	C283.804871,304.440796 282.487885,304.289490 279.075439,299.422577 
	C261.572266,274.459259 244.183701,249.415787 226.707001,224.433990 
	C220.022095,214.878311 213.453812,205.240601 206.665421,195.757965 
	C194.530609,178.806976 167.196686,178.958389 155.332901,195.721268 
	C138.970825,218.840027 122.727936,242.042480 106.437347,265.211395 
	C84.109550,296.966583 61.788269,328.726410 39.481377,360.496307 
	C38.525787,361.857269 37.566006,363.237427 36.281097,364.320557 
	C35.117054,365.301758 33.953682,365.719635 32.919037,363.559326 
	C32.240498,361.035889 32.320000,358.863953 32.319778,356.703125 
	C32.309521,255.650284 32.263069,154.597397 32.370472,53.544670 
	C32.384407,40.431965 35.048485,27.745005 40.967266,15.414785 
	C41.325207,14.747107 41.442890,14.470952 41.707130,13.775176 
	C42.087551,12.830281 42.366959,12.330637 42.939400,11.532101 
	C50.612061,5.410244 59.295177,2.872640 68.711304,1.244610 
	C190.020889,1.000000 311.041779,1.000000 432.531342,1.000000 
	C442.318726,2.854499 451.154938,5.995528 459.421722,10.730382 
	C479.610443,22.293579 492.526855,39.528072 499.289459,61.607323 
	C499.974548,63.844040 499.643280,66.242798 500.756714,68.717041 
z"/>
<path fill="#80B6FF" opacity="1.000000" stroke="none" 
	d="
M33.654503,365.396149 
	C42.802422,354.492920 50.217178,342.831787 58.171448,331.562012 
	C90.327217,286.002991 122.244057,240.274765 154.535553,194.812469 
	C167.048508,177.195847 194.535736,176.944733 207.083435,194.421906 
	C227.274857,222.545700 246.875336,251.093811 266.719055,279.467163 
	C271.488708,286.287018 276.296936,293.081360 280.953461,299.977936 
	C282.531769,302.315552 283.567780,303.411163 286.029327,300.681702 
	C299.406799,285.848297 313.586121,271.687408 326.261383,256.284454 
	C341.304199,238.004440 367.550323,238.867004 379.977356,255.263626 
	C386.006104,263.218140 392.514893,270.807495 398.752625,278.605164 
	C428.898590,316.290131 459.025513,353.990326 489.161530,391.683258 
	C492.901398,396.360992 496.655151,401.027618 500.701233,405.849701 
	C501.000000,413.354248 501.000000,420.708496 501.000000,428.531372 
	C499.900635,435.871735 499.006927,442.798187 496.172241,449.249115 
	C494.641846,452.731903 493.544098,456.493378 489.958466,459.182739 
	C476.427826,466.726593 462.124390,469.550842 447.282867,469.562408 
	C338.823334,469.646881 230.363678,469.672363 121.904198,469.559753 
	C96.322701,469.533173 73.707176,461.493286 55.841972,442.531647 
	C42.996239,428.897552 35.661625,412.573883 33.370880,393.936523 
	C32.350094,385.631531 32.272938,377.330109 32.485157,368.544312 
	C32.339218,367.135223 32.514053,366.275909 33.654503,365.396149 
z"/>
<path fill="#60A4FF" opacity="1.000000" stroke="none" 
	d="
M32.832947,367.081299 
	C34.910870,371.048462 33.915577,375.244232 33.954388,379.330048 
	C34.106632,395.357605 36.889919,410.721893 44.920776,424.806793 
	C57.875473,447.527435 77.177444,461.358398 102.975517,466.062012 
	C111.998299,467.707062 121.081543,468.029541 130.229630,468.024933 
	C233.042206,467.973297 335.854980,467.906006 438.667297,468.074982 
	C456.348724,468.104034 473.454193,466.281311 489.782410,458.044373 
	C491.364441,460.286713 489.655670,461.808594 488.639801,463.404266 
	C477.649719,480.667358 462.051849,491.975189 442.859894,498.553680 
	C438.259003,500.130737 433.442230,500.486481 428.303223,500.776062 
	C309.979095,501.000000 191.958206,501.000000 73.468658,501.000000 
	C52.736965,499.483704 36.123028,490.275879 22.551659,475.766632 
	C10.742508,463.141449 2.418607,448.494507 1.224661,430.306152 
	C1.000000,424.311951 1.000000,418.623932 1.000000,412.467957 
	C5.341545,402.816254 12.096956,395.224396 17.673941,386.857361 
	C21.430834,381.221008 25.339146,375.670319 29.346714,370.199036 
	C30.225380,368.999451 31.006298,367.708832 32.832947,367.081299 
z"/>
<path fill="#F0E5E1" opacity="1.000000" stroke="none" 
	d="
M33.242786,366.798828 
	C22.668293,381.948334 12.145232,396.843689 1.311086,411.869537 
	C1.000000,298.979095 1.000000,185.958206 1.000000,72.468658 
	C4.100240,47.514008 16.976076,29.116295 36.575943,14.917038 
	C38.304905,13.664478 39.928764,12.069647 42.687706,12.763813 
	C41.573128,19.640631 37.984028,25.566561 36.688530,32.309517 
	C35.279755,39.642075 33.996891,46.946438 33.998245,54.440979 
	C34.016888,157.703110 34.020012,260.965240 34.045612,364.714783 
	C33.807598,365.649719 33.550907,366.097198 33.242786,366.798828 
z"/>
<path fill="#FEFEFF" opacity="1.000000" stroke="none" 
	d="
M428.468658,501.000000 
	C437.120300,498.675812 446.285431,496.617737 454.782288,492.241455 
	C469.842804,484.484558 481.635193,473.431274 490.072540,458.358398 
	C495.992401,449.359619 498.012024,439.337189 500.694611,429.221436 
	C501.000000,451.930389 500.934052,474.861206 501.084259,497.790619 
	C501.102844,500.624817 500.429047,501.090668 497.728058,501.075195 
	C474.798431,500.943634 451.867706,501.000000 428.468658,501.000000 
z"/>
<path fill="#FFFFFF" opacity="1.000000" stroke="none" 
	d="
M42.997887,12.992132 
	C37.359360,14.865012 33.174942,18.939054 28.875614,22.700668 
	C14.012663,35.704735 5.477263,52.333828 1.280420,71.753609 
	C1.000000,49.404900 1.065866,26.809364 0.916536,4.215250 
	C0.897895,1.394858 1.551012,0.905951 4.265276,0.923561 
	C25.530350,1.061527 46.796715,1.000000 68.531342,1.000000 
	C68.847595,2.749093 67.591255,2.811735 66.214699,3.051294 
	C58.397930,4.411625 51.199429,7.427725 44.199821,11.738254 
	C43.755325,12.217073 43.525360,12.431940 43.144581,12.830545 
	C42.982746,13.002494 42.999752,13.002200 42.997887,12.992132 
z"/>
<path fill="#FFFFFF" opacity="1.000000" stroke="none" 
	d="
M501.000000,68.531342 
	C498.832092,68.791183 499.244171,67.070206 498.913055,65.652443 
	C495.399445,50.608379 488.383362,37.244102 477.606964,26.332127 
	C465.756378,14.332471 451.604523,5.847246 434.628357,2.871262 
	C434.087952,2.776525 433.644379,2.129433 433.077820,1.369915 
	C454.596741,1.000000 476.193970,1.069473 497.789612,0.915693 
	C500.620148,0.895537 501.093048,1.565544 501.075714,4.269726 
	C500.939240,25.533333 501.000000,46.798203 501.000000,68.531342 
z"/>
<path fill="#FEFEFF" opacity="1.000000" stroke="none" 
	d="
M1.000000,430.468658 
	C3.016093,432.784027 2.715379,436.236664 3.663972,439.335999 
	C14.188699,473.723877 37.226871,493.945007 72.746635,500.710449 
	C50.070583,501.000000 27.140738,500.934540 4.212294,501.083862 
	C1.384801,501.102295 0.907905,500.438690 0.924225,497.731232 
	C1.058423,475.467255 1.000000,453.202118 1.000000,430.468658 
z"/>
<path fill="#FFCD69" opacity="1.000000" stroke="none" 
	d="
M410.614655,83.942764 
	C437.869720,106.036751 442.213165,148.277832 420.008667,175.404968 
	C403.123322,196.033676 381.174316,203.990677 354.493713,199.460022 
	C341.526703,188.330887 335.086517,174.226959 333.652161,157.850220 
	C331.048981,128.128922 343.077850,105.706757 368.773224,90.957474 
	C381.518646,83.641548 395.521667,81.074738 410.614655,83.942764 
z"/>
<path fill="#FFC145" opacity="1.000000" stroke="none" 
	d="
M410.821167,83.711792 
	C409.874146,85.412376 408.280151,85.074135 406.843964,84.910027 
	C370.511078,80.758446 340.482849,106.853294 335.300140,139.693115 
	C331.978333,160.741364 337.057526,180.194611 352.461609,196.030502 
	C353.128937,196.716537 353.502533,197.688309 354.087036,198.895203 
	C335.204529,195.791275 320.662598,185.576874 310.845490,169.271637 
	C286.007538,128.018433 309.588623,76.301773 357.071930,68.441994 
	C376.833344,65.170929 395.047668,70.331589 410.821167,83.711792 
z"/>
<path fill="#F0E5E1" opacity="1.000000" stroke="none" 
	d="
M43.203201,12.896671 
	C43.087307,12.679795 43.278160,12.420672 43.775810,12.119562 
	C43.886684,12.332852 43.695801,12.591803 43.203201,12.896671 
z"/>
</svg>