<?xml version="1.0" encoding="utf-8"?>
<svg viewBox="0 0 200 200" xmlns="http://www.w3.org/2000/svg">
  <rect style="stroke-width: 8px; stroke: rgb(44, 67, 151); fill: rgb(117, 167, 243);" width="165" height="165" rx="20" ry="20" x="31" y="4"/>
  <path d="M 142.426 64.502 C 148.141 56.08 153.855 56.08 159.569 64.502 L 195.997 118.185 L 195.997 148.186 C 195.997 159.231 187.043 168.186 175.997 168.186 L 72.276 168.186 C 72.698 167.36 73.224 166.483 73.854 165.554 L 142.426 64.502 Z" style="stroke-width: 8px; fill: rgb(73, 128, 210); stroke: rgb(44, 67, 151);"/>
  <rect style="stroke-width: 8px; stroke: rgb(44, 67, 151); fill: rgb(117, 167, 243);" width="165" height="165" rx="20" ry="20" y="31" x="4"/>
  <ellipse style="stroke: rgb(0, 0, 0); stroke-width: 0px; fill: rgb(255, 255, 255);" cx="51.5" cy="78.5" rx="22.5" ry="22.5"/>
  <path d="M 24.072 196 C 15.131 196 7.56 190.133 5 182.039 L 45.501 122.354 C 51.215 113.933 56.93 113.933 62.644 122.354 L 112.619 196 L 24.072 196 Z" style="stroke-width: 8px; stroke: rgb(44, 67, 151); fill: rgb(117, 167, 243);"/>
  <path d="M 115.426 91.502 C 121.141 83.08 126.855 83.08 132.569 91.502 L 168.997 145.185 L 168.997 175.186 C 168.997 186.231 160.043 195.186 148.997 195.186 L 45.276 195.186 C 45.698 194.36 46.224 193.483 46.854 192.554 L 115.426 91.502 Z" style="stroke-width: 8px; fill: rgb(73, 128, 210); stroke: rgb(44, 67, 151);"/>
</svg>